# xmcd
#
# Track frame offsets: 
#        150
#        18018
#        45821
#        67457
#        84402
#        104843
#        135677
#        154078
#        175542
#        193059
#        224709
#        246508
#
# Disc length: 3653 seconds
#
# Revision: 0
# Processed by: cddbd v1.5.2PL0 Copyright (c) Steve Scherf et al.
# Submitted via: ExactAudioCopy v1.0b2
#
DISCID=ab0e430c
DTITLE=Michael Katon - Hard On! (The Boogie)
DYEAR=2012
DGENRE=Blues
TTITLE0=Hard On! (The boogie)
TTITLE1=Watermelon And Black Coffee
TTITLE2=Check Out TheBlues
TTITLE3=Gas Money
TTITLE4=Hey Jimi WeNeed Ya
TTITLE5=Bring Me My Morphine
TTITLE6=Boogie From Hell
TTITLE7=Whiskey Hill
TTITLE8=The Ballad Of Johnny Bloodheart
TTITLE9=Hold On Memphis
TTITLE10=Younger Man
TTITLE11=Hard On! (The Boogie) Pt.2
EXTD=
EXTT0=
EXTT1=
EXTT2=
EXTT3=
EXTT4=
EXTT5=
EXTT6=
EXTT7=
EXTT8=
EXTT9=
EXTT10=
EXTT11=
PLAYORDER=
